<svg xmlns="http://www.w3.org/2000/svg" xmlns:xlink="http://www.w3.org/1999/xlink" width="500" zoomAndPan="magnify" viewBox="0 0 375 374.999991" height="500" preserveAspectRatio="xMidYMid meet" version="1.0"><defs><clipPath id="81c7fa5056"><path d="M 56.730469 56.730469 L 318.480469 56.730469 L 318.480469 318.480469 L 56.730469 318.480469 Z M 56.730469 56.730469 " clip-rule="nonzero"/></clipPath></defs><g clip-path="url(#81c7fa5056)"><path fill="#1d81ce" d="M 318.480469 187.605469 C 318.480469 189.746094 318.429688 191.886719 318.324219 194.027344 C 318.21875 196.167969 318.058594 198.300781 317.851562 200.433594 C 317.640625 202.566406 317.378906 204.691406 317.0625 206.808594 C 316.75 208.925781 316.382812 211.039062 315.964844 213.136719 C 315.546875 215.238281 315.078125 217.328125 314.558594 219.40625 C 314.039062 221.484375 313.46875 223.546875 312.84375 225.597656 C 312.222656 227.644531 311.550781 229.679688 310.832031 231.695312 C 310.109375 233.710938 309.339844 235.710938 308.519531 237.6875 C 307.699219 239.667969 306.832031 241.625 305.914062 243.5625 C 305 245.5 304.035156 247.410156 303.027344 249.300781 C 302.015625 251.1875 300.960938 253.050781 299.859375 254.890625 C 298.757812 256.726562 297.613281 258.535156 296.425781 260.316406 C 295.234375 262.097656 294 263.847656 292.726562 265.566406 C 291.449219 267.289062 290.132812 268.976562 288.773438 270.632812 C 287.414062 272.289062 286.015625 273.910156 284.578125 275.496094 C 283.140625 277.082031 281.664062 278.632812 280.148438 280.148438 C 278.632812 281.664062 277.082031 283.140625 275.496094 284.578125 C 273.910156 286.015625 272.289062 287.414062 270.632812 288.773438 C 268.976562 290.132812 267.289062 291.449219 265.566406 292.726562 C 263.847656 294 262.097656 295.234375 260.316406 296.425781 C 258.535156 297.613281 256.726562 298.757812 254.890625 299.859375 C 253.050781 300.960938 251.1875 302.015625 249.300781 303.027344 C 247.410156 304.035156 245.5 305 243.5625 305.914062 C 241.625 306.832031 239.667969 307.699219 237.6875 308.519531 C 235.710938 309.339844 233.710938 310.109375 231.695312 310.832031 C 229.679688 311.550781 227.644531 312.222656 225.597656 312.84375 C 223.546875 313.46875 221.484375 314.039062 219.40625 314.558594 C 217.328125 315.078125 215.238281 315.546875 213.136719 315.964844 C 211.039062 316.382812 208.925781 316.75 206.808594 317.0625 C 204.691406 317.378906 202.566406 317.640625 200.433594 317.851562 C 198.300781 318.058594 196.167969 318.21875 194.027344 318.324219 C 191.886719 318.429688 189.746094 318.480469 187.605469 318.480469 C 185.464844 318.480469 183.324219 318.429688 181.183594 318.324219 C 179.042969 318.21875 176.910156 318.058594 174.777344 317.851562 C 172.644531 317.640625 170.519531 317.378906 168.402344 317.0625 C 166.285156 316.75 164.175781 316.382812 162.074219 315.964844 C 159.972656 315.546875 157.882812 315.078125 155.804688 314.558594 C 153.726562 314.039062 151.664062 313.46875 149.613281 312.84375 C 147.566406 312.222656 145.53125 311.550781 143.515625 310.832031 C 141.5 310.109375 139.5 309.339844 137.523438 308.519531 C 135.542969 307.699219 133.585938 306.832031 131.648438 305.914062 C 129.714844 305 127.800781 304.035156 125.910156 303.027344 C 124.023438 302.015625 122.160156 300.960938 120.324219 299.859375 C 118.484375 298.757812 116.675781 297.613281 114.894531 296.425781 C 113.113281 295.234375 111.363281 294 109.644531 292.726562 C 107.921875 291.449219 106.234375 290.132812 104.578125 288.773438 C 102.921875 287.414062 101.300781 286.015625 99.714844 284.578125 C 98.128906 283.140625 96.578125 281.664062 95.0625 280.148438 C 93.546875 278.632812 92.070312 277.082031 90.632812 275.496094 C 89.195312 273.910156 87.796875 272.289062 86.4375 270.632812 C 85.078125 268.976562 83.761719 267.289062 82.484375 265.566406 C 81.210938 263.847656 79.976562 262.097656 78.785156 260.316406 C 77.597656 258.535156 76.453125 256.726562 75.351562 254.890625 C 74.25 253.050781 73.195312 251.1875 72.183594 249.300781 C 71.175781 247.410156 70.210938 245.5 69.296875 243.5625 C 68.378906 241.625 67.511719 239.667969 66.691406 237.6875 C 65.875 235.710938 65.101562 233.710938 64.382812 231.695312 C 63.660156 229.679688 62.988281 227.644531 62.367188 225.597656 C 61.746094 223.546875 61.171875 221.484375 60.652344 219.40625 C 60.132812 217.328125 59.664062 215.238281 59.246094 213.136719 C 58.828125 211.039062 58.460938 208.925781 58.148438 206.808594 C 57.832031 204.691406 57.570312 202.566406 57.359375 200.433594 C 57.152344 198.300781 56.992188 196.167969 56.886719 194.027344 C 56.785156 191.886719 56.730469 189.746094 56.730469 187.605469 C 56.730469 185.464844 56.785156 183.324219 56.886719 181.183594 C 56.992188 179.042969 57.152344 176.910156 57.359375 174.777344 C 57.570312 172.644531 57.832031 170.519531 58.148438 168.402344 C 58.460938 166.285156 58.828125 164.175781 59.246094 162.074219 C 59.664062 159.972656 60.132812 157.882812 60.652344 155.804688 C 61.171875 153.726562 61.746094 151.664062 62.367188 149.613281 C 62.988281 147.566406 63.660156 145.53125 64.382812 143.515625 C 65.101562 141.5 65.875 139.5 66.691406 137.523438 C 67.511719 135.542969 68.378906 133.585938 69.296875 131.648438 C 70.210938 129.714844 71.175781 127.800781 72.183594 125.910156 C 73.195312 124.023438 74.25 122.160156 75.351562 120.324219 C 76.453125 118.484375 77.597656 116.675781 78.785156 114.894531 C 79.976562 113.113281 81.210938 111.363281 82.484375 109.644531 C 83.761719 107.921875 85.078125 106.234375 86.4375 104.578125 C 87.796875 102.921875 89.195312 101.300781 90.632812 99.714844 C 92.070312 98.128906 93.546875 96.578125 95.0625 95.0625 C 96.578125 93.546875 98.128906 92.070312 99.714844 90.632812 C 101.300781 89.195312 102.921875 87.796875 104.578125 86.4375 C 106.234375 85.078125 107.921875 83.761719 109.644531 82.484375 C 111.363281 81.210938 113.113281 79.976562 114.894531 78.785156 C 116.675781 77.597656 118.484375 76.453125 120.324219 75.351562 C 122.160156 74.25 124.023438 73.195312 125.910156 72.183594 C 127.800781 71.175781 129.714844 70.210938 131.648438 69.296875 C 133.585938 68.378906 135.542969 67.511719 137.523438 66.691406 C 139.5 65.875 141.5 65.101562 143.515625 64.382812 C 145.53125 63.660156 147.566406 62.988281 149.613281 62.367188 C 151.664062 61.746094 153.726562 61.171875 155.804688 60.652344 C 157.882812 60.132812 159.972656 59.664062 162.074219 59.246094 C 164.175781 58.828125 166.285156 58.460938 168.402344 58.148438 C 170.519531 57.832031 172.644531 57.570312 174.777344 57.359375 C 176.910156 57.152344 179.042969 56.992188 181.183594 56.886719 C 183.324219 56.785156 185.464844 56.730469 187.605469 56.730469 C 189.746094 56.730469 191.886719 56.785156 194.027344 56.886719 C 196.167969 56.992188 198.300781 57.152344 200.433594 57.359375 C 202.566406 57.570312 204.691406 57.832031 206.808594 58.148438 C 208.925781 58.460938 211.039062 58.828125 213.136719 59.246094 C 215.238281 59.664062 217.328125 60.132812 219.40625 60.652344 C 221.484375 61.171875 223.546875 61.746094 225.597656 62.367188 C 227.644531 62.988281 229.679688 63.660156 231.695312 64.382812 C 233.710938 65.101562 235.710938 65.875 237.6875 66.691406 C 239.667969 67.511719 241.625 68.378906 243.5625 69.296875 C 245.5 70.210938 247.410156 71.175781 249.300781 72.183594 C 251.1875 73.195312 253.050781 74.25 254.890625 75.351562 C 256.726562 76.453125 258.535156 77.597656 260.316406 78.785156 C 262.097656 79.976562 263.847656 81.210938 265.566406 82.484375 C 267.289062 83.761719 268.976562 85.078125 270.632812 86.4375 C 272.289062 87.796875 273.910156 89.195312 275.496094 90.632812 C 277.082031 92.070312 278.632812 93.546875 280.148438 95.0625 C 281.664062 96.578125 283.140625 98.128906 284.578125 99.714844 C 286.015625 101.300781 287.414062 102.921875 288.773438 104.578125 C 290.132812 106.234375 291.449219 107.921875 292.726562 109.644531 C 294 111.363281 295.234375 113.113281 296.425781 114.894531 C 297.613281 116.675781 298.757812 118.484375 299.859375 120.324219 C 300.960938 122.160156 302.015625 124.023438 303.027344 125.910156 C 304.035156 127.800781 305 129.714844 305.914062 131.648438 C 306.832031 133.585938 307.699219 135.542969 308.519531 137.523438 C 309.339844 139.5 310.109375 141.5 310.832031 143.515625 C 311.550781 145.53125 312.222656 147.566406 312.84375 149.613281 C 313.46875 151.664062 314.039062 153.726562 314.558594 155.804688 C 315.078125 157.882812 315.546875 159.972656 315.964844 162.074219 C 316.382812 164.175781 316.75 166.285156 317.0625 168.402344 C 317.378906 170.519531 317.640625 172.644531 317.851562 174.777344 C 318.058594 176.910156 318.21875 179.042969 318.324219 181.183594 C 318.429688 183.324219 318.480469 185.464844 318.480469 187.605469 Z M 318.480469 187.605469 " fill-opacity="1" fill-rule="nonzero"/></g><path fill="#ffffff" d="M 178.375 129.875 C 177.296875 121.234375 170.03125 117.503906 160.703125 120.84375 C 158.839844 121.53125 157.070312 118.683594 153.929688 122.414062 C 152.359375 124.277344 151.277344 127.027344 150.886719 129.679688 C 152.359375 127.421875 156.777344 122.609375 160.214844 122.609375 C 165.90625 122.609375 165.417969 131.542969 174.058594 128.796875 C 175.628906 128.207031 177.199219 128.695312 178.375 129.875 Z M 249.65625 271.355469 L 125.652344 271.355469 C 119.273438 271.355469 114.167969 266.25 114.167969 259.964844 L 114.167969 115.34375 C 114.167969 109.0625 119.273438 103.859375 125.652344 103.859375 L 249.65625 103.859375 C 255.941406 103.859375 261.144531 109.0625 261.144531 115.34375 L 261.144531 259.964844 C 261.144531 266.25 255.941406 271.355469 249.65625 271.355469 Z M 125.652344 108.375 C 121.726562 108.375 118.585938 111.515625 118.585938 115.34375 L 118.585938 259.964844 C 118.585938 263.792969 121.726562 266.9375 125.652344 266.9375 L 249.65625 266.9375 C 253.484375 266.9375 256.625 263.792969 256.625 259.964844 L 256.625 115.34375 C 256.625 111.515625 253.484375 108.375 249.65625 108.375 Z M 237.578125 130.5625 L 203.804688 130.5625 C 200.859375 130.5625 200.859375 126.144531 203.804688 126.144531 L 237.578125 126.144531 C 240.523438 126.144531 240.523438 130.5625 237.578125 130.5625 Z M 237.578125 146.273438 L 203.804688 146.273438 C 200.859375 146.273438 200.859375 141.851562 203.804688 141.851562 L 237.578125 141.851562 C 240.523438 141.851562 240.523438 146.273438 237.578125 146.273438 Z M 237.578125 177.6875 L 203.804688 177.6875 C 200.859375 177.6875 200.859375 173.171875 203.804688 173.171875 L 237.578125 173.171875 C 240.523438 173.171875 240.523438 177.6875 237.578125 177.6875 Z M 240.820312 200.46875 L 134.390625 200.46875 C 131.445312 200.46875 131.445312 195.949219 134.390625 195.949219 L 240.820312 195.949219 C 243.765625 195.949219 243.765625 200.46875 240.820312 200.46875 Z M 240.820312 215.390625 L 134.390625 215.390625 C 131.445312 215.390625 131.445312 210.972656 134.390625 210.972656 L 240.820312 210.972656 C 243.765625 210.972656 243.765625 215.390625 240.820312 215.390625 Z M 240.820312 230.3125 L 134.390625 230.3125 C 131.445312 230.3125 131.445312 225.894531 134.390625 225.894531 L 240.820312 225.894531 C 243.765625 225.894531 243.765625 230.3125 240.820312 230.3125 Z M 240.820312 260.257812 L 212.542969 260.257812 C 209.597656 260.257812 209.597656 255.742188 212.542969 255.742188 L 240.820312 255.742188 C 243.765625 255.742188 243.765625 260.257812 240.820312 260.257812 Z M 187.605469 245.238281 L 134.390625 245.238281 C 131.445312 245.238281 131.445312 240.820312 134.390625 240.820312 L 187.605469 240.820312 C 190.550781 240.820312 190.550781 245.238281 187.605469 245.238281 Z M 240.132812 161.980469 L 206.457031 161.980469 C 203.511719 161.980469 203.511719 157.5625 206.457031 157.5625 L 240.132812 157.5625 C 243.078125 157.5625 243.078125 161.980469 240.132812 161.980469 Z M 194.183594 188.6875 L 135.078125 188.6875 C 133.902344 188.6875 132.820312 187.703125 132.820312 186.425781 L 132.820312 173.46875 C 132.820312 165.023438 139.695312 158.152344 148.136719 158.152344 L 151.867188 158.152344 L 153.046875 153.636719 C 150.101562 150.492188 148.039062 145.878906 148.039062 139.496094 C 148.039062 139.398438 148.039062 139.300781 148.039062 139.105469 C 144.699219 133.214844 146.566406 124.179688 150.492188 119.566406 C 153.144531 116.425781 156.480469 115.246094 160.015625 116.328125 C 167.183594 113.96875 173.859375 115.148438 178.179688 119.46875 C 182.894531 124.082031 184.167969 131.839844 181.617188 139.695312 C 182.109375 145.976562 179.652344 150.199219 177.492188 152.554688 C 177.101562 153.046875 176.707031 153.4375 176.214844 153.832031 L 177.394531 158.152344 L 181.125 158.152344 C 189.570312 158.152344 196.34375 165.023438 196.34375 173.46875 L 196.34375 186.425781 C 196.34375 187.703125 195.363281 188.6875 194.183594 188.6875 Z M 156.089844 159.625 L 164.53125 166.300781 L 173.171875 159.625 L 172.289062 156.480469 C 167.480469 158.839844 161.785156 159.035156 156.972656 156.480469 Z M 137.335938 184.265625 L 143.816406 184.265625 L 143.816406 177.589844 C 143.816406 174.644531 148.332031 174.644531 148.332031 177.589844 L 148.332031 184.265625 L 180.929688 184.265625 L 180.929688 177.589844 C 180.929688 174.644531 185.347656 174.644531 185.347656 177.589844 L 185.347656 184.265625 L 191.925781 184.265625 L 191.925781 173.46875 C 191.925781 167.480469 187.113281 162.667969 181.125 162.667969 L 176.414062 162.667969 L 165.808594 170.914062 C 165.023438 171.601562 163.945312 171.601562 163.058594 170.914062 L 152.75 162.667969 L 148.136719 162.667969 C 142.148438 162.667969 137.335938 167.480469 137.335938 173.46875 Z M 156.777344 151.082031 C 156.972656 151.179688 157.070312 151.277344 157.269531 151.375 C 163.058594 156.972656 178.574219 153.046875 177.101562 139.59375 C 176.804688 136.160156 175.824219 133.605469 175.234375 133.015625 C 165.023438 136.355469 161.585938 127.222656 160.214844 127.125 C 160.214844 127.125 160.113281 127.125 159.820312 127.222656 C 149.414062 133.214844 151.671875 146.46875 156.777344 151.082031 Z M 156.777344 151.082031 " fill-opacity="1" fill-rule="evenodd"/></svg>